name analog
datacolumns 19
datarows 19
range 0.5115000000000001 0.5205
endheader
time	ground_force_vx	ground_force_vy	ground_force_vz	ground_force_px	ground_force_py	ground_force_pz	l_ground_force_vx	l_ground_force_vy	l_ground_force_vz	l_ground_force_px	l_ground_force_py	l_ground_force_pz	ground_torque_x	ground_torque_y	ground_torque_z	l_ground_torque_x	l_ground_torque_y	l_ground_torque_z
0.5115000000000001	-0.0	-0.0	-0.0	14.7138032913208	75.76676940917969	-588.5626831054688	9.564095497131348	-67.35625457763672	-425.2994995117188	-0.0	-0.0	-0.0	-0.0	-0.0	-0.0	93288.3828125	-56340.0859375	9803.4130859375
0.512	-0.0	-0.0	-0.0	13.964336395263672	75.95066833496094	-590.1636962890625	9.419038772583008	-67.47776794433594	-427.7429504394531	-0.0	-0.0	-0.0	-0.0	-0.0	-0.0	93758.8515625	-56463.87890625	9662.775390625
0.5125	-0.0	-0.0	-0.0	14.630523681640623	75.7191162109375	-590.8699951171875	9.225921630859377	-67.0762939453125	-429.6470031738281	-0.0	-0.0	-0.0	-0.0	-0.0	-0.0	94025.9765625	-56854.875	9805.615234375
0.513	-0.0	-0.0	-0.0	14.440974235534668	75.54635620117188	-592.8015747070312	9.411314010620115	-67.46983337402344	-430.662841796875	-0.0	-0.0	-0.0	-0.0	-0.0	-0.0	94768.765625	-57093.07421875	9805.6875
0.5135	-0.0	-0.0	-0.0	14.650650024414062	75.37334442138672	-594.7550048828125	9.331524848937988	-66.94784545898438	-432.7271118164063	-0.0	-0.0	-0.0	-0.0	-0.0	-0.0	95011.4140625	-57340.14453125	9730.3330078125
0.514	-0.0	-0.0	-0.0	14.577939987182615	74.9952621459961	-594.7550048828125	9.918295860290527	-66.94784545898438	-434.314208984375	-0.0	-0.0	-0.0	-0.0	-0.0	-0.0	95414.4453125	-57465.43359375	9765.642578125
0.5145	-0.0	-0.0	-0.0	14.75658130645752	75.13693237304688	-595.108154296875	10.08762550354004	-66.51377868652344	-436.5395202636719	-0.0	-0.0	-0.0	-0.0	-0.0	-0.0	95680.578125	-57546.8046875	9865.8701171875
0.515	-0.0	-0.0	-0.0	15.076576232910156	74.78547668457031	-596.7276611328125	10.427258491516112	-66.49878692626953	-436.7886962890625	-0.0	-0.0	-0.0	-0.0	-0.0	-0.0	95798.5234375	-57579.31640625	9793.2392578125
0.5155	-0.0	-0.0	-0.0	15.649011611938477	74.8125991821289	-595.6085205078125	10.201740264892578	-66.24127197265625	-436.2214660644531	-0.0	-0.0	-0.0	-0.0	-0.0	-0.0	95879.9453125	-57681.48828125	9854.955078125
0.516	-0.0	-0.0	-0.0	15.56002140045166	74.53596496582031	-595.2371826171875	10.208958625793455	-66.37015533447266	-436.06195068359375	-0.0	-0.0	-0.0	-0.0	-0.0	-0.0	95719.0078125	-57613.3046875	9720.20703125
0.5165	-0.0	-0.0	-0.0	15.79496955871582	74.22209930419922	-591.9295654296875	9.751066207885742	-65.9692153930664	-436.4675598144531	-0.0	-0.0	-0.0	-0.0	-0.0	-0.0	95711.4765625	-57558.26171875	9708.7236328125
0.517	-0.0	-0.0	-0.0	15.428840637207031	74.0902328491211	-590.7206420898438	9.403343200683594	-66.2005844116211	-434.5604553222656	-0.0	-0.0	-0.0	-0.0	-0.0	-0.0	95403.4375	-57367.3671875	9628.3486328125
0.5175	-0.0	-0.0	-0.0	15.118959426879885	73.74430847167969	-588.0445556640625	8.659586906433105	-66.17321014404297	-432.7599487304688	-0.0	-0.0	-0.0	-0.0	-0.0	-0.0	95151.71875	-57068.9140625	9287.880859375
0.518	-0.0	-0.0	-0.0	14.485841751098633	73.70650482177734	-585.9427490234375	8.414005279541016	-65.40557098388672	-432.598876953125	-0.0	-0.0	-0.0	-0.0	-0.0	-0.0	94773.9765625	-57015.37109375	9251.4736328125
0.5185	-0.0	-0.0	-0.0	13.776724815368652	74.05477905273438	-581.8556518554688	8.059454917907715	-65.69817352294922	-430.879150390625	-0.0	-0.0	-0.0	-0.0	-0.0	-0.0	94651.7734375	-56945.98046875	9114.0537109375
0.519	-0.0	-0.0	-0.0	12.70224380493164	73.97413635253906	-580.8612060546875	8.01203727722168	-65.30416107177734	-430.3421936035156	-0.0	-0.0	-0.0	-0.0	-0.0	-0.0	94471.75	-56747.30859375	9068.486328125
0.5195	-0.0	-0.0	-0.0	12.400260925292969	74.1178970336914	-577.9395751953125	8.196149826049805	-65.28246307373047	-428.7078247070313	-0.0	-0.0	-0.0	-0.0	-0.0	-0.0	94348.71875	-56621.19140625	9125.771484375
0.52	-0.0	-0.0	-0.0	12.182990074157717	73.97824096679688	-574.7471923828125	8.031452178955078	-64.8629379272461	-427.8976135253906	-0.0	-0.0	-0.0	-0.0	-0.0	-0.0	94070.3984375	-56572.33984375	9020.892578125
0.5205	-0.0	-0.0	-0.0	11.993207931518556	74.11380004882812	-573.7333984375	7.942691802978516	-64.38650512695312	-427.0850830078125	-0.0	-0.0	-0.0	-0.0	-0.0	-0.0	93744.109375	-56263.5546875	8977.4990234375
